PathFileType	4	(X/Y/Z)	/Users/visionmauri/4_2_1_f_1_Sports2D/4_2_1_f_1_Sports2D_m_person00.trc
DataRate	CameraRate	NumFrames	NumMarkers	Units	OrigDataRate	OrigDataStartFrame	OrigNumFrames
30.0	30.0	6	22	m	30.0	286	382
Frame#	Time	Hip			RHip			RKnee			RAnkle			RBigToe			RSmallToe			RHeel			LHip			LKnee			LAnkle			LBigToe			LSmallToe			LHeel			Neck			Head			Nose			RShoulder			RElbow			RWrist			LShoulder			LElbow			LWrist			
		X1	Y1	Z1	X2	Y2	Z2	X3	Y3	Z3	X4	Y4	Z4	X5	Y5	Z5	X6	Y6	Z6	X7	Y7	Z7	X8	Y8	Z8	X9	Y9	Z9	X10	Y10	Z10	X11	Y11	Z11	X12	Y12	Z12	X13	Y13	Z13	X14	Y14	Z14	X15	Y15	Z15	X16	Y16	Z16	X17	Y17	Z17	X18	Y18	Z18	X19	Y19	Z19	X20	Y20	Z20	X21	Y21	Z21	X22	Y22	Z22
286	9.558355205599298	1.282532593982855	0.8566604185345572	0.0301	1.169519437102562	0.8625111391792236	0.0301	1.0582989727135457	0.5080909631146937	0.129	0.9205009258867115	0.056474438765196595	0.023	0.8801207878417288	-0.08143676049686736	0.2179	0.8397199168681357	-0.06379069019461203	0.1804	0.9502682425845448	-0.02208223547223904	-0.0119	1.3947461405405008	0.81721563442358	0.0301	1.3245235520557606	0.42436170042302623	0.129	1.2439637582993026	0.06483361587625695	0.023	1.26098896334998	-0.07779404874997302	0.2179	1.3157048204504973	-0.06690590803059417	0.1804	1.1994200491323797	0.01159924291386839	-0.0119	1.4018910253229913	1.4827520832005865	0.0008	1.4364597734709499	1.7471024119020169	0.0655	1.3815257634461215	1.5448633369652638	0.1076	1.2019783036307012	1.436582198320911	-0.01275	1.009853605209973	1.1818496707483173	0.0702	0.8337070017031136	0.9997612489891626	0.1076	1.5978207421448332	1.4033284589865553	-0.01275	1.6273733912166173	1.0818462093132615	0.0702	1.6112609802125746	0.8392781984781441	0.1076
287	9.591776027996499	1.2768308012483867	0.8560635969930948	0.0301	1.1636365684778318	0.8605035817587646	0.0301	1.0572484378514828	0.506194317815532	0.129	0.9247728091577782	0.06225772709571416	0.023	0.8881142556473399	-0.08306750358309407	0.2179	0.8613476393749849	-0.06376058632560587	0.1804	0.9558809932689201	-0.014296498170144578	-0.0119	1.3889847283378443	0.8176950955113336	0.0301	1.3267602122208082	0.4230714405762204	0.129	1.2453645194807599	0.06659334682397065	0.023	1.2615228868630062	-0.07916926705606442	0.2179	1.3161915720400084	-0.06604612069688524	0.1804	1.2005850372683522	0.017164096206128954	-0.0119	1.3904248080781525	1.4859641761524789	0.0008	1.4178839359416016	1.7606946896091598	0.0655	1.3657830578662418	1.5471981650013926	0.1076	1.1871108578494438	1.4386474790417052	-0.01275	0.9999736882801351	1.1822099561756572	0.0702	0.8256832312060608	0.9976240888371559	0.1076	1.5877100338180425	1.4055856713922972	-0.01275	1.62202607125422	1.0798536925457518	0.0702	1.6121210111841175	0.8401889839944675	0.1076
288	9.6251968503937	1.271637033687996	0.8554026255993142	0.0301	1.158037112184268	0.8595983141313382	0.0301	1.0531937590803617	0.4994798896227727	0.129	0.923850041138863	0.06204508371472892	0.023	0.8907627555219297	-0.09212589733271045	0.2179	0.8634271300650072	-0.06666845095374874	0.1804	0.9542710691553593	-0.014687241089442773	-0.0119	1.3849351219695003	0.8183881238287721	0.0301	1.3312523618600078	0.42097081402746156	0.129	1.2476441238575529	0.06898581509481648	0.023	1.2623845477237294	-0.08130442598616665	0.2179	1.3174562584567535	-0.06518099482680056	0.1804	1.2015306465851021	0.023557729248587633	-0.0119	1.3778467251368693	1.4902083460946647	0.0008	1.3975181994551318	1.7708071013554523	0.0655	1.3493508778405772	1.553377583506981	0.1076	1.1724421609647437	1.441299461005577	-0.01275	0.9897775766702883	1.1827180104457575	0.0702	0.8166044604354246	0.995856342522722	0.1076	1.5761284958219834	1.4101169503011386	-0.01275	1.615406835820571	1.0808655864765895	0.0702	1.612891444449824	0.840228411719978	0.1076
289	9.6586176727909	1.2687231283569538	0.8563870560683386	0.0301	1.1545241015375611	0.8594453149058471	0.0301	1.048144475463268	0.49251510807318183	0.129	0.9218757816403003	0.06029835051951874	0.023	0.886623764544766	-0.10563058820411668	0.2179	0.8541050397535931	-0.07045878511987723	0.1804	0.9507655879803608	-0.015113587991842427	-0.0119	1.3833737167227622	0.8191972080048405	0.0301	1.336553586139218	0.41567030709562547	0.129	1.2502676111431807	0.0750519775870068	0.023	1.2621959612303604	-0.08298054480112722	0.2179	1.3187218062886892	-0.06459043740590158	0.1804	1.202099488438072	0.033251297407637145	-0.0119	1.3628224283382335	1.4950536090068187	0.0008	1.378217303728133	1.7741144398721378	0.0655	1.33331091399497	1.5642900492426626	0.1076	1.1565509946384325	1.4416380719283672	-0.01275	0.9778561466932586	1.1832764125794446	0.0702	0.8056656806768479	0.994499820498133	0.1076	1.5628495509826092	1.4201201325326611	-0.01275	1.6084908846435493	1.0885077483700474	0.0702	1.611710741041607	0.8400775103584602	0.1076
290	9.6920384951881	1.2667784459301454	0.858521403595584	0.0301	1.151629854547142	0.8607045686076992	0.0301	1.0437813511116714	0.4904286498106581	0.129	0.9208101435895039	0.055529005235349545	0.023	0.8774427178870889	-0.11570404546050715	0.2179	0.8458691907319935	-0.07639873689754277	0.1804	0.9479637016281482	-0.017476682141253762	-0.0119	1.3831609134791039	0.8206006563098159	0.0301	1.3440399670690424	0.40952560689107737	0.129	1.2521692150591035	0.08454400453109419	0.023	1.2610593489840822	-0.08439277054946025	0.2179	1.3192248650455336	-0.06470516262900902	0.1804	1.2024400018339976	0.046384279045902095	-0.0119	1.347721489043137	1.4982635734927487	0.0008	1.3619498670443748	1.7746690527602456	0.0655	1.3209869461409798	1.571815017738601	0.1076	1.1402606540886089	1.4394878273764928	-0.01275	0.9644239408554558	1.1833149054311602	0.0702	0.7958620816645495	0.9943053360618386	0.1076	1.5512518178679071	1.4302810701138888	-0.01275	1.6025478210514876	1.0975768211355623	0.0702	1.6079670973528597	0.8399707978759922	0.1076
291	9.725459317585301	1.263814225411853	0.8593804456894006	0.0301	1.1466179628970288	0.8603956391374566	0.0301	1.0384506156027784	0.48792637448277526	0.129	0.9178432478002889	0.04525156377169277	0.023	0.8653321797978676	-0.12169509694024237	0.2179	0.8366984683154651	-0.08801651891293442	0.1804	0.9433025745673002	-0.026583619070445878	-0.0119	1.3824201915718237	0.8210547896340484	0.0301	1.3528097142615971	0.40363897869615706	0.129	1.2529088276091904	0.09463141989733766	0.023	1.2608260236636195	-0.08664308363310355	0.2179	1.3196351676192764	-0.06569501768923974	0.1804	1.2027312546660094	0.06181763777677261	-0.0119	1.3356577199004513	1.500647712891781	0.0008	1.3488621917696917	1.7764829603703303	0.0655	1.3118521188731027	1.5723344676491573	0.1076	1.126898472350705	1.437597651260025	-0.01275	0.9510210047564012	1.1821618016215654	0.0702	0.7896674124883101	0.9951515604052169	0.1076	1.5423985192228646	1.4353712319245042	-0.01275	1.597659435205649	1.1028090743775605	0.0702	1.604157886108139	0.8405420694126303	0.1076
